<svg width="44" height="39" viewBox="0 0 44 39" fill="none" xmlns="http://www.w3.org/2000/svg">
<g filter="url(#filter0_d_140_15)">
<path d="M38 13H6C4.89543 13 4 13.8954 4 15C4 16.1046 4.89543 17 6 17H38C39.1046 17 40 16.1046 40 15C40 13.8954 39.1046 13 38 13Z" fill="#316BFF"/>
<path d="M22.1429 10.2857C24.9786 10.2857 27.2857 7.97863 27.2857 5.14286C27.2857 2.30709 24.9786 0 22.1429 0C19.3071 0 17 2.30709 17 5.14286C17 7.97863 19.3071 10.2857 22.1429 10.2857ZM22.1429 2.05714C23.8441 2.05714 25.2286 3.4416 25.2286 5.14286C25.2286 6.84411 23.8441 8.22857 22.1429 8.22857C20.4416 8.22857 19.0571 6.84411 19.0571 5.14286C19.0571 3.4416 20.4416 2.05714 22.1429 2.05714Z" fill="#316BFF"/>
<path d="M22.0003 20.4286C19.1645 20.4286 16.8574 22.7357 16.8574 25.5714C16.8574 28.4072 19.1645 30.7143 22.0003 30.7143C24.836 30.7143 27.1431 28.4072 27.1431 25.5714C27.1431 22.7357 24.836 20.4286 22.0003 20.4286ZM22.0003 28.6572C20.299 28.6572 18.9146 27.2727 18.9146 25.5714C18.9146 23.8702 20.299 22.4857 22.0003 22.4857C23.7015 22.4857 25.086 23.8702 25.086 25.5714C25.086 27.2727 23.7015 28.6572 22.0003 28.6572Z" fill="#316BFF"/>
</g>
<defs>
<filter id="filter0_d_140_15" x="0" y="0" width="44" height="38.7144" filterUnits="userSpaceOnUse" color-interpolation-filters="sRGB">
<feFlood flood-opacity="0" result="BackgroundImageFix"/>
<feColorMatrix in="SourceAlpha" type="matrix" values="0 0 0 0 0 0 0 0 0 0 0 0 0 0 0 0 0 0 127 0" result="hardAlpha"/>
<feOffset dy="4"/>
<feGaussianBlur stdDeviation="2"/>
<feComposite in2="hardAlpha" operator="out"/>
<feColorMatrix type="matrix" values="0 0 0 0 0 0 0 0 0 0 0 0 0 0 0 0 0 0 0.25 0"/>
<feBlend mode="normal" in2="BackgroundImageFix" result="effect1_dropShadow_140_15"/>
<feBlend mode="normal" in="SourceGraphic" in2="effect1_dropShadow_140_15" result="shape"/>
</filter>
</defs>
</svg>
