<svg width="44" height="23" viewBox="0 0 44 23" fill="none" xmlns="http://www.w3.org/2000/svg">
<g filter="url(#filter0_d_140_58)">
<path d="M38 0H6C4.89543 0 4 0.895431 4 2C4 3.10457 4.89543 4 6 4H38C39.1046 4 40 3.10457 40 2C40 0.895431 39.1046 0 38 0Z" fill="#316BFF"/>
<path d="M38 11H6C4.89543 11 4 11.8954 4 13C4 14.1046 4.89543 15 6 15H38C39.1046 15 40 14.1046 40 13C40 11.8954 39.1046 11 38 11Z" fill="#316BFF"/>
</g>
<defs>
<filter id="filter0_d_140_58" x="0" y="0" width="44" height="23" filterUnits="userSpaceOnUse" color-interpolation-filters="sRGB">
<feFlood flood-opacity="0" result="BackgroundImageFix"/>
<feColorMatrix in="SourceAlpha" type="matrix" values="0 0 0 0 0 0 0 0 0 0 0 0 0 0 0 0 0 0 127 0" result="hardAlpha"/>
<feOffset dy="4"/>
<feGaussianBlur stdDeviation="2"/>
<feComposite in2="hardAlpha" operator="out"/>
<feColorMatrix type="matrix" values="0 0 0 0 0 0 0 0 0 0 0 0 0 0 0 0 0 0 0.25 0"/>
<feBlend mode="normal" in2="BackgroundImageFix" result="effect1_dropShadow_140_58"/>
<feBlend mode="normal" in="SourceGraphic" in2="effect1_dropShadow_140_58" result="shape"/>
</filter>
</defs>
</svg>
