<svg width="52" height="52" viewBox="0 0 52 52" fill="none" xmlns="http://www.w3.org/2000/svg">
<g filter="url(#filter0_d_141_63)">
<path d="M38.7291 35.8995L16.1017 13.2721C15.3207 12.4911 14.0543 12.4911 13.2733 13.2721C12.4922 14.0532 12.4922 15.3195 13.2733 16.1006L35.9007 38.728C36.6818 39.509 37.9481 39.509 38.7291 38.728C39.5102 37.9469 39.5102 36.6806 38.7291 35.8995Z" fill="#316BFF"/>
<path d="M35.9 13.2721L13.2726 35.8995C12.4916 36.6806 12.4916 37.9469 13.2726 38.7279C14.0537 39.509 15.32 39.509 16.101 38.7279L38.7285 16.1005C39.5095 15.3195 39.5095 14.0531 38.7285 13.2721C37.9474 12.491 36.6811 12.491 35.9 13.2721Z" fill="#316BFF"/>
</g>
<defs>
<filter id="filter0_d_141_63" x="8.68652" y="12.6863" width="34.6279" height="34.6274" filterUnits="userSpaceOnUse" color-interpolation-filters="sRGB">
<feFlood flood-opacity="0" result="BackgroundImageFix"/>
<feColorMatrix in="SourceAlpha" type="matrix" values="0 0 0 0 0 0 0 0 0 0 0 0 0 0 0 0 0 0 127 0" result="hardAlpha"/>
<feOffset dy="4"/>
<feGaussianBlur stdDeviation="2"/>
<feComposite in2="hardAlpha" operator="out"/>
<feColorMatrix type="matrix" values="0 0 0 0 0 0 0 0 0 0 0 0 0 0 0 0 0 0 0.25 0"/>
<feBlend mode="normal" in2="BackgroundImageFix" result="effect1_dropShadow_141_63"/>
<feBlend mode="normal" in="SourceGraphic" in2="effect1_dropShadow_141_63" result="shape"/>
</filter>
</defs>
</svg>
