<svg width="44" height="44" viewBox="0 0 44 44" fill="none" xmlns="http://www.w3.org/2000/svg">
<g filter="url(#filter0_d_140_55)">
<path d="M38 16H6C4.89543 16 4 16.8954 4 18C4 19.1046 4.89543 20 6 20H38C39.1046 20 40 19.1046 40 18C40 16.8954 39.1046 16 38 16Z" fill="#316BFF"/>
<path d="M20 2L20 34C20 35.1046 20.8954 36 22 36C23.1046 36 24 35.1046 24 34V2C24 0.895432 23.1046 0 22 0C20.8954 0 20 0.895432 20 2Z" fill="#316BFF"/>
</g>
<defs>
<filter id="filter0_d_140_55" x="0" y="0" width="44" height="44" filterUnits="userSpaceOnUse" color-interpolation-filters="sRGB">
<feFlood flood-opacity="0" result="BackgroundImageFix"/>
<feColorMatrix in="SourceAlpha" type="matrix" values="0 0 0 0 0 0 0 0 0 0 0 0 0 0 0 0 0 0 127 0" result="hardAlpha"/>
<feOffset dy="4"/>
<feGaussianBlur stdDeviation="2"/>
<feComposite in2="hardAlpha" operator="out"/>
<feColorMatrix type="matrix" values="0 0 0 0 0 0 0 0 0 0 0 0 0 0 0 0 0 0 0.25 0"/>
<feBlend mode="normal" in2="BackgroundImageFix" result="effect1_dropShadow_140_55"/>
<feBlend mode="normal" in="SourceGraphic" in2="effect1_dropShadow_140_55" result="shape"/>
</filter>
</defs>
</svg>
