<svg width="50" height="54" viewBox="0 0 50 54" fill="none" xmlns="http://www.w3.org/2000/svg">
<g filter="url(#filter0_d_140_60)">
<path d="M8 10.5901H42V41.5001C42 42.561 41.5786 43.5784 40.8284 44.3285C40.0783 45.0787 39.0609 45.5001 38 45.5001H12C10.9391 45.5001 9.92172 45.0787 9.17157 44.3285C8.42143 43.5784 8 42.561 8 41.5001V10.5901Z" fill="#316BFF" fill-opacity="0.6"/>
<path d="M44 12H6C5.46957 12 4.96086 11.7893 4.58579 11.4142C4.21071 11.0391 4 10.5304 4 10C4 9.46957 4.21071 8.96086 4.58579 8.58579C4.96086 8.21071 5.46957 8 6 8H44C44.5304 8 45.0391 8.21071 45.4142 8.58579C45.7893 8.96086 46 9.46957 46 10C46 10.5304 45.7893 11.0391 45.4142 11.4142C45.0391 11.7893 44.5304 12 44 12Z" fill="#316BFF"/>
<path d="M17 37.5C16.4696 37.5 15.9609 37.2893 15.5858 36.9142C15.2107 36.5391 15 36.0304 15 35.5V21.5C15 20.9696 15.2107 20.4609 15.5858 20.0858C15.9609 19.7107 16.4696 19.5 17 19.5C17.5304 19.5 18.0391 19.7107 18.4142 20.0858C18.7893 20.4609 19 20.9696 19 21.5V35.5C19 36.0304 18.7893 36.5391 18.4142 36.9142C18.0391 37.2893 17.5304 37.5 17 37.5V37.5Z" fill="#316BFF"/>
<path d="M25 37.5C24.4696 37.5 23.9609 37.2893 23.5858 36.9142C23.2107 36.5391 23 36.0304 23 35.5V21.5C23 20.9696 23.2107 20.4609 23.5858 20.0858C23.9609 19.7107 24.4696 19.5 25 19.5C25.5304 19.5 26.0391 19.7107 26.4142 20.0858C26.7893 20.4609 27 20.9696 27 21.5V35.5C27 36.0304 26.7893 36.5391 26.4142 36.9142C26.0391 37.2893 25.5304 37.5 25 37.5Z" fill="#316BFF"/>
<path d="M33 37.5C32.4696 37.5 31.9609 37.2893 31.5858 36.9142C31.2107 36.5391 31 36.0304 31 35.5V21.5C31 20.9696 31.2107 20.4609 31.5858 20.0858C31.9609 19.7107 32.4696 19.5 33 19.5C33.5304 19.5 34.0391 19.7107 34.4142 20.0858C34.7893 20.4609 35 20.9696 35 21.5V35.5C35 36.0304 34.7893 36.5391 34.4142 36.9142C34.0391 37.2893 33.5304 37.5 33 37.5Z" fill="#316BFF"/>
<path d="M34 8H30V4H20V8H16V4C16 2.93913 16.4214 1.92172 17.1716 1.17157C17.9217 0.421427 18.9391 0 20 0H30C31.0609 0 32.0783 0.421427 32.8284 1.17157C33.5786 1.92172 34 2.93913 34 4V8Z" fill="#316BFF"/>
</g>
<defs>
<filter id="filter0_d_140_60" x="0" y="0" width="50" height="53.5001" filterUnits="userSpaceOnUse" color-interpolation-filters="sRGB">
<feFlood flood-opacity="0" result="BackgroundImageFix"/>
<feColorMatrix in="SourceAlpha" type="matrix" values="0 0 0 0 0 0 0 0 0 0 0 0 0 0 0 0 0 0 127 0" result="hardAlpha"/>
<feOffset dy="4"/>
<feGaussianBlur stdDeviation="2"/>
<feComposite in2="hardAlpha" operator="out"/>
<feColorMatrix type="matrix" values="0 0 0 0 0 0 0 0 0 0 0 0 0 0 0 0 0 0 0.25 0"/>
<feBlend mode="normal" in2="BackgroundImageFix" result="effect1_dropShadow_140_60"/>
<feBlend mode="normal" in="SourceGraphic" in2="effect1_dropShadow_140_60" result="shape"/>
</filter>
</defs>
</svg>
